<svg width="20" height="19" viewBox="0 0 20 19" fill="none" xmlns="http://www.w3.org/2000/svg">
<path d="M19.0494 7.87419C19.3553 7.64279 19.1917 7.15517 18.8081 7.15517H12.6617C12.4863 7.15517 12.3313 7.0409 12.2795 6.87332L10.3822 0.736107C10.266 0.360302 9.73403 0.360302 9.61785 0.736107L7.72047 6.87332C7.66866 7.0409 7.51372 7.15517 7.33832 7.15517H1.17989C0.797549 7.15517 0.63312 7.64019 0.936634 7.87271L5.9461 11.7103C6.07872 11.8119 6.13423 11.9852 6.08532 12.145L4.19894 18.3059C4.085 18.6781 4.51571 18.9772 4.82467 18.7406L9.75675 14.9622C9.90028 14.8523 10.0997 14.8523 10.2433 14.9622L15.1707 18.737C15.4801 18.974 15.9112 18.6737 15.7961 18.3013L13.8828 12.1128C13.8331 11.952 13.8894 11.7772 14.0237 11.6756L19.0494 7.87419Z" fill="#FFAD33"/>
</svg>
